<svg width="504" height="81" viewBox="0 0 504 81" fill="none" xmlns="http://www.w3.org/2000/svg">
<path d="M36.7338 10.6923H53.9765L39.6321 81H22.3894L36.7338 10.6923Z" fill="white"/>
<path d="M62.0337 10.6923H79.2764L68.1002 65.7798H50.8533L62.0337 10.6923Z" fill="white"/>
<path d="M11.1804 10.6923H28.4231L17.2468 65.7798H0L11.1804 10.6923Z" fill="white"/>
<path d="M502.989 52.5891C502.237 56.231 499.444 59.1824 495.222 59.1824C490.999 59.1824 489.429 56.2352 490.181 52.5891C490.934 48.943 493.726 46 497.948 46C502.171 46 503.729 48.943 502.989 52.5891Z" fill="white"/>
<path d="M407.578 59.024L412.795 33.7411C416 17.2092 418.5 20.2135 402.452 20.2135H399.636C398.175 20.1714 396.722 20.4466 395.371 21.0211C394.02 21.5956 392.802 22.4566 391.795 23.548L390.045 20.2135H379.008L371 59.024H384.588L389.808 33.7411C390.217 31.7581 390.606 31.3876 392.535 31.3876H397.44C399.37 31.3876 399.607 31.7539 399.198 33.7411L393.978 59.024H407.578Z" fill="white"/>
<path d="M371.03 31.4542C370.532 33.6604 369.332 35.6317 367.62 37.0539L360.699 42.9483C359.04 44.3855 356.952 45.1938 354.784 45.2387H345.202L344.986 46.2786C344.577 48.2659 344.814 48.6322 346.743 48.6322H367.477L365.172 59.8105H341.723C333.744 59.8105 329.685 54.4971 331.381 46.2786L333.805 34.5277C335.502 26.3092 341.756 21 349.748 21H360.066C368.025 21.0168 372.141 26.0481 371.03 31.4542ZM356.796 34.5445C357.204 32.5573 356.967 32.191 355.038 32.191H350.132C348.211 32.1868 347.802 32.5615 347.393 34.5445L346.576 38.5906H354.67C355.033 38.5751 355.381 38.4381 355.661 38.2002C355.942 37.9623 356.139 37.6367 356.223 37.2728L356.796 34.5445Z" fill="white"/>
<path d="M490.03 30.4542C489.532 32.6604 488.332 34.6317 486.62 36.0539L479.699 41.9483C478.04 43.3855 475.952 44.1938 473.784 44.2387H464.202L463.986 45.2786C463.577 47.2659 463.814 47.6322 465.743 47.6322H486.477L484.172 58.8105H460.723C452.744 58.8105 448.685 53.4971 450.381 45.2786L452.805 33.5277C454.502 25.3092 460.756 20 468.748 20H479.066C487.025 20.0168 491.141 25.0481 490.03 30.4542ZM475.796 33.5445C476.204 31.5573 475.967 31.191 474.038 31.191H469.132C467.211 31.1868 466.802 31.5615 466.393 33.5445L465.576 37.5906H473.67C474.033 37.5751 474.381 37.4381 474.661 37.2002C474.942 36.9623 475.139 36.6367 475.223 36.2728L475.796 33.5445Z" fill="white"/>
<path d="M263.671 19.9871L255.643 58.7934H242.059L247.782 31.157H241L243.31 19.9829L263.671 19.9871ZM253.583 12.7412C251.228 10.0466 251.947 5.42368 255.181 2.42174C258.414 -0.580198 262.948 -0.824395 265.315 1.8744C267.682 4.5732 266.95 9.1961 263.716 12.198C260.483 15.2 255.941 15.4442 253.583 12.7412Z" fill="white"/>
<path d="M241.282 20L216.088 58.8105H202.19L193 20H207.884L211.886 45.4849L226.398 20.0211L241.282 20Z" fill="white"/>
<path d="M190.384 33.5277L187.96 45.2828C186.263 53.5013 180.009 58.8105 172.017 58.8105H161.723C153.744 58.8105 149.685 53.4971 151.381 45.2786L153.805 33.5277C155.498 25.3092 161.752 20 169.748 20H180.058C188.021 20 192.084 25.3092 190.384 33.5277ZM176.783 33.5277C177.192 31.5404 176.955 31.1741 175.03 31.1741H170.124C168.195 31.1741 167.806 31.5446 167.397 33.5277L164.969 45.2786C164.56 47.2659 164.802 47.6322 166.727 47.6322H171.633C173.558 47.6322 173.95 47.2617 174.359 45.2786L176.783 33.5277Z" fill="white"/>
<path d="M148.76 33.5319L143.544 58.8147H129.956L135.172 33.5319C135.581 31.5446 135.344 31.1783 133.418 31.1783H128.513C126.6 31.1783 126.199 31.5446 125.795 33.4813C125.795 33.4813 125.795 33.515 125.795 33.5319L120.578 58.8147H106.978L112.198 33.5319C112.607 31.5446 112.37 31.1783 110.44 31.1783H105.535C103.606 31.1783 103.217 31.5488 102.808 33.5319L97.5881 58.8147H84L92.0082 20.0042H103.045L104.795 23.3387C105.802 22.2473 107.02 21.3863 108.371 20.8118C109.722 20.2373 111.175 19.9621 112.636 20.0042H115.452C120.766 20.0042 124.352 22.383 125.635 26.4038C128.01 21.9325 131.452 20.0042 135.61 20.0042H138.43C146.414 20.0042 150.473 25.3134 148.76 33.5319Z" fill="white"/>
<path d="M327.76 33.5319L322.544 58.8147H308.956L314.172 33.5319C314.581 31.5446 314.344 31.1783 312.418 31.1783H307.513C305.6 31.1783 305.199 31.5446 304.795 33.4813C304.795 33.4813 304.795 33.515 304.795 33.5319L299.578 58.8147H285.978L291.198 33.5319C291.607 31.5446 291.37 31.1783 289.44 31.1783H284.535C282.606 31.1783 282.217 31.5488 281.808 33.5319L276.588 58.8147H263L271.008 20.0042H282.045L283.795 23.3387C284.802 22.2473 286.02 21.3863 287.371 20.8118C288.722 20.2373 290.175 19.9621 291.636 20.0042H294.452C299.766 20.0042 303.352 22.383 304.635 26.4038C307.01 21.9325 310.452 20.0042 314.61 20.0042H317.43C325.414 20.0042 329.473 25.3134 327.76 33.5319Z" fill="white"/>
<path d="M436.743 32.3315L432.68 52.023C432.271 54.0103 432.508 54.3766 434.433 54.3766H442.883L440.577 65.5549H429.422C421.442 65.5549 417.379 60.2415 419.075 52.023L423.138 32.3315H418L420.306 21.1532H425.456L427.345 12H440.945L439.057 21.1532H449.751L447.433 32.3315H436.743Z" fill="white"/>
</svg>
